<svg xmlns="http://www.w3.org/2000/svg" xmlns:xlink="http://www.w3.org/1999/xlink" version="1.1" id="Layer_1" x="0px" y="0px" viewBox="0 0 125.412529 15.6599998" style="enable-background:new 0 0 125.412529 15.6599998;" xml:space="preserve">
<style type="text/css">
	.st0{fill:#FFFFFF;}
</style>
<path class="st0" d="M13.2099991,1.2v6.5999994c-0.1419659,3.6478405-3.2142105,6.4899139-6.8620505,6.347949  c-3.4487514-0.1342173-6.2137318-2.8991976-6.347949-6.347949V1.2h2.3600006v6.5999994  c-0.1138244,2.344449,1.6944542,4.3372726,4.0389032,4.4510965c2.3444476,0.1138248,4.3372722-1.6944542,4.451097-4.0389023  c0.0066662-0.1373177,0.0066662-0.2748775,0-0.4121943V1.2H13.2099991z"/>
<path class="st0" d="M28.289999,1.2200003v13.1999998l-2.3599987-1.8400002l-8.4900017-6.5100002v8.3500004h-2.3799992V1.2600002  l2.3600006,1.8099997l8.5100002,6.5100002V1.2L28.289999,1.2200003z"/>
<path class="st0" d="M32.5200005,4.77v1.2199998h8.5400009v2.3600006h-8.5400009v2.4899998  c0.0054359,0.6659994,0.5439987,1.2045622,1.2099991,1.21h9.6399994v2.3499994h-9.6399994  c-1.9606037-0.0055141-3.5455189-1.5993681-3.5400028-3.5599709c0-0.0000095,0-0.0000191,0-0.0000286V4.77  c-0.0055428-1.9622495,1.577774-3.5589843,3.5400028-3.5699997h9.6399994v2.3799999h-9.6399994  C33.0716438,3.5851986,32.536171,4.1118236,32.5200005,4.77z"/>
<path class="st0" d="M56.9600029,7.8000002c0,3.6450796-2.9549217,6.5999994-6.5999985,6.5999994  c-3.6450806,0-6.6000023-2.9549208-6.6000023-6.5999994s2.9549217-6.5999999,6.6000023-6.5999994l0,0  C54.0028,1.2055082,56.9544945,4.1572046,56.9600029,7.8000002z M54.6000023,7.8000002  c-0.0055237-2.3416805-1.9083061-4.2355108-4.2499886-4.2299871c-2.3416786,0.0055227-4.2355118,1.9083073-4.2299881,4.2499876  c0.0055161,2.3377724,1.9021988,4.2299938,4.2399788,4.2299995C52.7033081,12.0444851,54.6000099,10.1433096,54.6000023,7.8000002z"/>
<path class="st0" d="M71.5899963,10.1999998c0,2.3195944-1.8804016,4.1999989-4.1999969,4.1999998h-8.9999962V1.2h8.3199959  c1.9716492,0.0053713,3.5656357,1.6080632,3.5602646,3.5797122c-0.0018463,0.6770048-0.1961594,1.3395295-0.5602646,1.9102874  C70.8839417,7.4722281,71.5893936,8.7893152,71.5899963,10.1999998z M60.7500038,5.9699998H66.75  c0.6655045-0.060688,1.1557999-0.6493821,1.0951157-1.3148851c-0.0530243-0.58144-0.5136795-1.042093-1.0951157-1.0951149  h-5.9999962V5.9699998z M67.3899994,12.0299997c1.0217285-0.0003853,1.8496857-0.8289709,1.8493042-1.8506975  c-0.0003891-1.0211821-0.828125-1.848917-1.8493042-1.8493023h-6.6399956v3.7200003h6.6399956V12.0299997z"/>
<path class="st0" d="M85.7099991,14.3999996h-2.6500015l-1.1999969-2.3500004l-2.8800049-5.6599994l-2.9199982,5.6600003  l-1.1999969,2.3499994H72.25l1.1999969-2.3500004L78.9799957,1.2l5.5299988,10.8500004L85.7099991,14.3999996z"/>
<path class="st0" d="M100.0599976,1.2200003v13.1999998l-2.3799973-1.8400002l-8.4800034-6.5100002v8.3500004h-2.3600006V1.2600002  l2.3600006,1.8099997l8.4800034,6.5100002V1.2L100.0599976,1.2200003z"/>
<path class="st0" d="M109.3499985,6.5l5.7200012,7.8999996h-2.9100037l-4.5599976-6.29l-3.3399963,3v3.2600002h-2.3600006V1.2  h2.3600006v6.75l1.9400024-1.77l1.7599945-1.5999999L111.6299973,1.2h3.4899979L109.3499985,6.5z"/>
<g>
	<path class="st0" d="M125.1478348,9.2384806c-0.1696167-0.4009962-0.4123764-0.7610826-0.72155-1.07026   c-0.3091736-0.3091731-0.6692734-0.5519395-1.0702591-0.7215462c-0.4152756-0.1756458-0.8562775-0.2647033-1.3107605-0.2647033   s-0.8954926,0.0890574-1.3107605,0.2647033c-0.401001,0.1696067-0.7610855,0.4123731-1.0702591,0.7215462   c-0.3091736,0.3091774-0.5519409,0.6692638-0.72155,1.07026c-0.1756439,0.4152718-0.2647018,0.8562756-0.2647018,1.3107595   c0,0.4544868,0.0890579,0.895484,0.2647018,1.3107595c0.1696091,0.4009924,0.4123764,0.7610855,0.72155,1.0702591   s0.6692581,0.55194,1.0702591,0.72155c0.4152679,0.175642,0.8562775,0.2646999,1.3107605,0.2646999   s0.8954849-0.0890579,1.3107605-0.2646999c0.4009857-0.16961,0.7610855-0.4123764,1.0702591-0.72155   s0.5519333-0.6692667,0.72155-1.0702591c0.1756363-0.4152756,0.2646942-0.8562727,0.2646942-1.3107595   C125.412529,10.0947561,125.3234711,9.6537523,125.1478348,9.2384806z M122.0452652,13.4933958   c-1.6234131,0-2.9441605-1.3207445-2.9441605-2.9441557c0-1.623415,1.3207474-2.9441566,2.9441605-2.9441566   c1.6234055,0,2.9441528,1.3207417,2.9441528,2.9441566C124.989418,12.1726513,123.6686707,13.4933958,122.0452652,13.4933958z"/>
	<path class="st0" d="M123.3073044,11.1923647c-0.0949326-0.223793-0.2242813-0.4048004-0.385376-0.5396061   c0.3666229-0.2055788,0.5523224-0.5237284,0.5523224-0.9472055c0-0.3500214-0.1422043-0.6306467-0.4226761-0.8340979   c-0.2735214-0.1983061-0.6449738-0.2988539-1.1040192-0.2988539c-0.3014679,0-0.6473389,0.0350599-1.0279922,0.104208   l-0.0579147,0.010519v3.8399611h0.6369247v-1.6412125h0.5591812c0.4655151,0,0.7703781,0.5315065,0.9061127,1.5797501   l0.0079498,0.0614624h0.6395187l-0.0118866-0.0807867C123.5149841,11.8725195,123.4167023,11.4505711,123.3073044,11.1923647z    M122.6589508,10.1803217c-0.1350937,0.1011467-0.3453064,0.1524315-0.6248093,0.1524315h-0.5355682V9.1665878   c0.1229782-0.0112085,0.2736206-0.0168791,0.4489822-0.0168791c0.6093216,0,0.9055099,0.192194,0.9055099,0.5875597   C122.8530655,9.9375896,122.7895737,10.0825148,122.6589508,10.1803217z"/>
</g>
</svg>