<svg xmlns="http://www.w3.org/2000/svg" id="Layer_1" data-name="Layer 1" viewBox="0 0 484.06768 192.21909" style="height: 55px;">
						<path d="M28.077,190.87794h-.99841L15.54084,164.93217C10.16024,152.81411,9.49459,152.11025,6,152.11025V150.9538c1.49769.05023,4.04928.10059,6.87828.10059,2.718,0,5.71335-.05036,7.93218-.10073v1.15659c-5.60245,0-5.15873.80445-.38831,11.46429,3.93838,9.10118,5.99076,13.77747,7.322,17.49836h.111c1.33131-3.72089,3.21724-8.34695,7.21111-17.39776,4.77042-10.81067,5.10317-11.56489-.16645-11.56489l-.00008-1.15645c2.32972.05023,5.10325.10059,7.54394.10059,2.4961,0,4.88131-.05036,6.2127-.10073v1.15659c-3.27273,0-3.772.80445-9.09711,12.82192Z" transform="translate(-6 -4)" style="fill: #f9c579"/>
						<path d="M48.16615,177.48552c-3.36065,7.55338-3.62951,8.19276.31362,8.19276v.91926c-1.6131-.04-3.62952-.07995-5.82515-.07995-2.28521,0-3.98795.03992-5.01851.07995v-.91926c2.64372,0,3.047-.63938,7.61747-10.83046l8.96169-20.02231h.89622l8.648,20.02231c4.43609,10.19108,4.74977,10.83046,7.34866,10.83046l-.00012.91926c-.941-.04-2.55407-.07995-4.92893-.07995s-4.74971.03992-6.1387.07995v-.91926c3.85355,0,3.53987-.59946.35844-8.19276ZM59.189,174.56816l-.04476-.12c-4.21205-10.31083-4.57049-11.11023-4.74971-11.86948h-.04482c-.224.71933-.53772,1.55865-4.97374,11.86948l-.04482.12Z" transform="translate(-6 -4)" style="fill: #f9c579"/>
						<path d="M105.30462,186.53761h-.84318c-8.5721-8.21879-13.81845-13.25-17.14427-16.43758-2.24843-2.11238-3.93474-3.80213-6.32374-6.33691h-.09364v11.176c0,9.755,0,10.44626,4.02838,10.44626v.88339c-2.24843-.03847-4.30951-.07683-6.27688-.07683-2.15472,0-3.65368.03836-5.621.07683v-.88339c4.07531,0,4.07531-.69127,4.07531-10.44626V156.0052h.84312c8.66588,8.44918,13.95907,13.59558,17.33169,16.82164,2.20157,2.0739,3.65367,3.53326,6.13631,6.18324h.14057c-.04686-1.49783-.04686-3.11086-.04686-12.09774,0-9.17892,0-9.87018-4.12209-9.87018l-.00007-.88329c1.87367.03836,3.88789.07683,5.8084.07683,2.01423,0,3.8411-.03847,5.668-.07694v.8834c-3.56,0-3.56.69126-3.56,9.87018Z" transform="translate(-6 -4)" style="fill: #f9c579"/>
						<path d="M147.42447,170.577a14.67058,14.67058,0,0,1-7.19232,12.88745c-3.6206,2.23276-8.17085,3.29039-14.8249,3.29039-1.37,0-3.8653-.07836-6.11592-.07836-2.20168,0-4.06092.03913-6.16479.07836v-.901c4.30562,0,4.30562-.705,4.30562-10.61546V166.934c0-9.362,0-9.91041-4.10993-9.91041v-.86167c1.66355,0,4.35456-.03924,6.26267-.03924,2.15281,0,3.76742-.11749,6.89875-.11749,6.11585,0,9.68758.74429,13.06354,2.31112a13.13837,13.13837,0,0,1,7.87728,12.22153Zm-4.94163.15673a10.75432,10.75432,0,0,0-5.62666-9.55783c-2.44631-1.37109-6.21373-2.11527-10.27465-2.11527-1.90818,0-2.83783.03913-4.55025.15662v23.15033c0,.82266.19569,1.05764,1.02746,1.136a27.76376,27.76376,0,0,0,3.27809.15673c4.45237,0,8.12191-.86178,10.9108-2.78119a11.64537,11.64537,0,0,0,5.23521-10.10627Z" transform="translate(-6 -4)" style="fill: #f9c579"/>
						<path d="M154.17607,166.487c0-9.52718,0-10.16492-3.56518-10.16492v-.91681c2.2162.03982,5.34767.07975,9.49092.07975,4.52864,0,9.25-.03993,12.52614-.07986-.19276,2.19252-.33726,4.5045-.33726,6.89633h-1.05991c-.19269-3.26882-.96353-3.86675-4.96228-3.86675h-7.56379v10.723h5.54036c4.28782,0,5.49223-.07963,5.82949-2.03291h1.01165c-.09638,1.03648-.19269,2.23234-.19269,3.38838,0,1.39517.09631,2.71059.19276,3.9862h-1.01172c-.28907-2.23234-1.44536-2.3519-5.68492-2.3519h-5.68493v9.68666c0,1.55456.09638,1.6343,1.92706,1.67423h7.22659c2.698-.03993,4.04695-.319,4.48052-3.54776h1.05991c-.14457,1.91335-.33726,4.42475-.33733,6.6969-3.37242-.03992-8.19013-.07974-12.62239-.07974s-7.80474.03982-10.06906.07974v-.91691c3.80606,0,3.80606-.63775,3.80606-10.80278Z" transform="translate(-6 -4)" style="fill: #f9c579"/>
						<path d="M181.22118,166.33451c0-9.44816,0-10.08061-4.07352-10.08061v-.83023h5.59492c.83434,0,1.865-.03949,2.89561-.07908,1.03064,0,2.11036-.03949,2.99372-.03949a23.29442,23.29442,0,0,1,6.52738.79063c3.63177,1.10685,6.2329,3.79508,6.2329,7.8669a8.45076,8.45076,0,0,1-4.07345,7.07627,13.88478,13.88478,0,0,1-3.73,1.62074v.07909c1.865,2.13474,3.48456,3.91365,8.8341,10.08072a6.72807,6.72807,0,0,0,5.25129,2.609l-.00007.86971c-1.47232,0-2.84652-.03949-4.07345-.03949-.93245,0-1.61959.03949-2.45386.03949a3.23418,3.23418,0,0,1-2.503-1.02777c-3.2882-3.95325-6.42919-7.82741-9.71746-11.82015-1.22693,0-2.552-.03949-3.2882-.03949v2.37188c0,9.01336.049,9.64582,3.92624,9.64582l-.00006.90931c-1.96309-.0396-3.779-.07909-6.03661-.07909s-4.17156.03949-6.331.07909v-.90931c4.02443,0,4.02443-.63246,4.02443-10.71318Zm15.3614-2.17423c0-3.39976-2.503-5.89033-7.75437-5.89033-1.17784,0-2.45386.07909-3.19.11868v12.09679c.83434.03948,1.47232.07908,2.40484.07908a11.46778,11.46778,0,0,0,5.34947-1.14645,5.86313,5.86313,0,0,0,3.19008-5.21828Z" transform="translate(-6 -4)" style="fill: #f9c579"/>
						<path d="M213.72483,166.7227c0-9.214,0-9.83073-4.05272-9.83073v-.88666c1.88152.03851,3.85968.07713,6.272.07713,2.36411,0,4.39047-.03862,6.27212-.07724v.88677c-3.9562,0-4.00439.61678-4.00439,9.83073v15.498c0,.73241.33761.96378,1.25434.96378h7.86421a5.19644,5.19644,0,0,0,3.47387-.84815,4.24791,4.24791,0,0,0,1.06144-2.85285H232.927c-.19291,2.6986-.28942,4.58766-.28942,6.74661-3.03961-.03862-8.10558-.07713-12.64076-.07713-4.48685,0-8.49138.03851-10.42122.07713v-.88677c4.19743-.03851,4.14924-.61678,4.14924-10.44761Z" transform="translate(-6 -4)" style="fill: #f9c579"/>
						<path d="M238.88413,166.43529c0-9.55159,0-10.191-3.3993-10.191v-.91915c2.113.03992,5.099.07995,9.04951.07995,4.318,0,8.8197-.04,11.94344-.08006-.18367,2.19814-.32145,4.516-.32145,6.914h-1.01061c-.1838-3.27719-.91885-3.87665-4.73149-3.87665h-7.21208v10.7505h5.28275c4.08833,0,5.23673-.07983,5.55831-2.03812h.9646c-.0919,1.03913-.1838,2.23806-.1838,3.39706,0,1.39874.0919,2.71754.1838,3.99641h-.9646c-.2757-2.23805-1.37808-2.35792-5.42053-2.35792h-5.42053v9.71148c0,1.55853.0919,1.63848,1.83743,1.67851h6.8905c2.57248-.04,3.85866-.3198,4.27213-3.55685h1.01062c-.13779,1.91826-.32158,4.43609-.32158,6.71406-3.21563-.04-7.80921-.07995-12.03546-.07995s-7.44163.03992-9.60063.07995v-.91926c3.629,0,3.629-.63938,3.629-10.83046Z" transform="translate(-6 -4)" style="fill: #f9c579"/>
						<path d="M271.67276,174.90781c0,10.19108,0,10.83046,3.71241,10.83046v.91926c-1.5017-.04-3.54564-.07995-5.6729-.07995-2.21083,0-3.87931.03992-5.58957.07995v-.91926c3.62908,0,3.62908-.63938,3.62908-10.79043v-8.51255c0-9.55159,0-10.191-3.50385-10.191v-.91915c1.62669.03992,3.4204.07995,5.38089.07995,2.04394,0,4.1712-.04,5.42268-.08006v.91926c-3.37874,0-3.37874.63938-3.37874,10.15105Z" transform="translate(-6 -4)" style="fill: #f9c579"/>
						<path d="M299.01646,147.88655h.83044c11.57883,24.90922,12.54751,26.8822,13.97761,30.43358h.09229c1.3839-3.4527,2.35258-5.42568,14.20826-30.43358h.87639l2.62957,24.36657c1.3839,12.578,1.52226,13.36713,4.84364,13.36713l-.00012,1.13457c-1.70684-.0494-3.59812-.09867-5.5356-.09867-2.26042,0-4.52084.04927-6.55048.09867v-1.13457c4.38234,0,4.244-.88781,3.13681-10.99945-.96868-9.27309-1.29161-12.134-1.3839-14.79759h-.04608c-1.753,4.34066-2.95237,6.80688-6.45832,14.551-1.3839,2.95947-3.2291,6.75761-5.58181,11.64078h-.83031c-2.39891-4.93258-4.24411-8.82926-5.53573-11.73945-3.36759-7.49748-4.6592-10.21032-6.41224-14.551h-.04608c-.09229,2.713-.41522,5.57376-1.33782,14.89626-1.061,10.11164-1.15325,10.99945,3.183,10.99945v1.13457c-2.02977-.0494-4.29019-.09867-6.41212-.09867-2.16814,0-3.82889.04927-5.44344.09867V185.571c3.41367,0,3.6904-.73986,5.0743-13.31786Z" transform="translate(-6 -4)" style="fill: #f9c579"/>
						<path d="M373.485,170.6322c0,9.43194-7.21979,16.61614-17.395,16.61614-9.33066,0-16.80371-6.78285-16.80371-15.97392,0-9.63261,7.59969-16.255,17.4793-16.255,9.45741,0,16.71937,6.4618,16.71937,15.57269Zm-4.39092.12038a12.71277,12.71277,0,1,0-12.75065,13.16458c7.093,0,12.75065-5.09727,12.75065-13.12438Z" transform="translate(-6 -4)" style="fill: #f9c579"/>
						<path d="M379.56325,167.07466c0-9.12234,0-9.733-4.12711-9.733v-.80159h5.66846c.84532,0,1.88958-.03813,2.9337-.07636,1.04427,0,2.1382-.03813,3.03318-.03813a24.70093,24.70093,0,0,1,6.61325.76337c3.67954,1.06868,6.315,3.6642,6.315,7.59561a8.10251,8.10251,0,0,1-4.1271,6.83225,14.43832,14.43832,0,0,1-3.779,1.56486v.07635c1.88958,2.06113,3.5304,3.7787,8.95025,9.7331a6.93994,6.93994,0,0,0,5.32051,2.51906l-.00014.83972c-1.49169,0-2.8839-.03813-4.127-.03813-.94479,0-1.641.03813-2.48614.03813a3.358,3.358,0,0,1-2.536-.99233c-3.33146-3.81692-6.51377-7.55749-9.84523-11.41254-1.24321,0-2.58575-.03813-3.3316-.03813V176.197c0,8.70254.04981,9.31319,3.978,9.31319v.87795c-1.98905-.03823-3.82883-.07636-6.116-.07636s-4.22658.03813-6.41444.07636v-.87795c4.07744,0,4.07744-.61065,4.07744-10.34375Zm15.56349-2.09925c0-3.28252-2.53594-5.6872-7.85631-5.6872-1.19341,0-2.48628.07635-3.23213.11459v11.67963c.84532.03812,1.49183.07635,2.43648.07635a12.09974,12.09974,0,0,0,5.42-1.10692,5.64079,5.64079,0,0,0,3.232-5.03832Z" transform="translate(-6 -4)" style="fill: #f9c579"/>
						<path d="M418.38867,177.0169c-3.34739,7.70073-3.61512,8.35259.31243,8.35259l-.00012.9372c-1.60664-.04081-3.615-.08151-5.80193-.08151-2.27621,0-3.97213.0407-4.99873.08151v-.9372c2.63323,0,3.03495-.65186,7.58726-11.04175l8.92629-20.41293h.8926l8.61373,20.41293c4.41844,10.38989,4.73088,11.04175,7.31953,11.04175l-.00012.9372c-.93719-.04081-2.544-.08151-4.90933-.08151s-4.73087.0407-6.11448.08151v-.9372c3.83827,0,3.526-.61116.35714-8.35259Zm10.97923-2.97428-.04471-.12232c-4.19529-10.512-4.5523-11.327-4.73087-12.101h-.04458c-.22316.73337-.53559,1.589-4.954,12.101l-.04471.12232Z" transform="translate(-6 -4)" style="fill: #f9c579"/>
						<path d="M447.41349,167.254c0-9.30926,0-9.93242-3.27241-9.93242v-.89584c2.03412.03891,4.90862.07792,8.7117.07792,4.15684,0,8.49048-.039,11.49761-.078-.17681,2.14237-.30945,4.40147-.30945,6.73859h-.97289c-.17693-3.194-.88454-3.7783-4.55487-3.7783h-6.94286v10.47776h5.08555c3.93573,0,5.04126-.07781,5.35083-1.98642h.92859c-.08847,1.01278-.17693,2.18128-.17693,3.31088,0,1.36326.08846,2.6486.17693,3.895h-.92859c-.2654-2.18128-1.32663-2.29811-5.21819-2.29811h-5.21819v9.4651c0,1.519.08847,1.59692,1.76885,1.63594h6.63328c2.47646-.039,3.71462-.31169,4.11266-3.46662h.97289c-.13264,1.86959-.30957,4.32354-.30957,6.54373-3.0956-.039-7.51771-.07792-11.5862-.07792s-7.16384.0389-9.24225.07792v-.89594c3.49351,0,3.49351-.62316,3.49351-10.55569Z" transform="translate(-6 -4)" style="fill: #f9c579"/>
						<path d="M490.06768,178.65122c0,4.80786-3.67327,8.59712-10.25964,8.59712a18.43977,18.43977,0,0,1-6.96639-1.38533c.16893-1.83347.29556-4.52263.33773-7.25249h.92886c.08447,2.1187.67559,3.504,1.6888,4.31891a6.14335,6.14335,0,0,0,4.011,1.18162c3.67315,0,6.122-1.9558,6.122-4.97088a5.68852,5.68852,0,0,0-2.57548-4.80786,47.93019,47.93019,0,0,0-4.39091-2.93358c-3.50435-2.28172-5.4887-4.80785-5.4887-8.3934,0-4.64484,3.88436-8.27108,9.62633-8.27108a20.40682,20.40682,0,0,1,5.742.85558c-.16892,2.36323-.25327,4.84867-.25327,7.00806h-.97115c.04229-1.95568-.33773-2.97427-1.26659-3.70775a5.545,5.545,0,0,0-3.41988-.97778c-3.082,0-5.40424,1.79266-5.40424,4.72635a5.52,5.52,0,0,0,2.23775,4.27809,38.03006,38.03006,0,0,0,4.47537,3.13741c3.251,2.07789,5.82644,4.48182,5.82644,8.55631Z" transform="translate(-6 -4)" style="fill: #f9c579"/>
						<g>
							<path d="M221.2765,124.70633c-11.19725.44789-13.43669-11.09408-13.43669-11.09408V60.65807l-16.348-23.06633v76.23187S188.95042,124.95568,178.352,124.719" transform="translate(-6 -4)" style="fill: #d5a65e"/>
							<path d="M276.43993,124.70633c11.19728.44789,13.43672-11.09408,13.43672-11.09408V60.65807l16.348-23.06633v76.23189s2.54136,11.13207,13.13976,10.89542" transform="translate(-6 -4)" style="fill: #d5a65e"/>
							<path d="M317.34889,4.12091c-.55986.77935-11.95415-.04474-11.19726,17.46771.11646,2.70976,0,5.37467,0,8.9578l-.5957,1.90354-56.7342,81.88771v-.12094L192.08752,32.329l-.59571-1.90353c0-3.58312-.11646-6.24358,0-8.9578C192.24876,3.9552,180.85444,4.77932,180.29455,4h42.54957c-21.05086,3.1352-13.4367,25.08184-13.4367,25.08184L248.82173,85.834v.12093l39.41432-56.75214s7.61415-21.9466-13.43669-25.08184Z" transform="translate(-6 -4)" style="fill: #fdce7d"/>
						</g>
						<rect x="44.00443" y="190.34466" width="397.51418" height="1.87444" style="fill: #f9c579"/>
					</svg>