<svg xmlns="http://www.w3.org/2000/svg" xmlns:xlink="http://www.w3.org/1999/xlink" version="1.1" x="0px" y="0px" viewBox="0 0 340.1574707 141.6797943" style="enable-background:new 0 0 340.1574707 141.6797943;" xml:space="preserve">
<style type="text/css">
	.st0{fill:#808080;}
	.st1{fill:#FFB316;}
	.st2{fill:#00441C;}
	.st3{fill:#FF9901;}
	.st4{fill:#348D55;}
	.st5{display:none;}
	.st6{display:inline;}
	.st7{fill:none;}
</style>
<g id="Layer_1">
	<g>
		<g>
			<path class="st0" d="M130.9837189,54.0205956c-1.6813354-0.8546143-3.6956863-1.2814331-6.0412064-1.2814331h-11.6565552     v29.6186562h6.4081421V72.0444641h5.2484131c2.34552,0,4.3598709-0.3869019,6.0412064-1.15979     c1.6813354-0.7728271,2.9707642-1.8648071,3.8652954-3.2748413c0.8955078-1.4110718,1.3422241-3.0784912,1.3422241-5.0051308     c0-1.8986816-0.4467163-3.5900269-1.3422241-5.0748901C133.954483,56.0449486,132.6650543,54.8752098,130.9837189,54.0205956z      M129.2146759,64.8424988c-0.3261108,0.6382446-0.8377075,1.1398315-1.5367508,1.5057983     c-0.6980591,0.3660278-1.6105347,0.5494995-2.7354126,0.5494995h-5.2484131v-8.9920082h5.2484131     c1.1248779,0,2.0373535,0.2203979,2.7354126,0.6611328c0.6990433,0.4407959,1.21064,1.0241699,1.5367508,1.7491455     c0.3250732,0.7260132,0.4876099,1.5028076,0.4876099,2.3295288     C129.7022858,63.4732933,129.5397491,64.2052917,129.2146759,64.8424988z"/>
			<path class="st0" d="M154.8563995,61.405056c-1.5666504-0.9762573-3.4753418-1.4649048-5.7271118-1.4649048     c-2.2238159,0-4.1155396,0.4886475-5.6752319,1.4649048c-1.5596313,0.9762573-2.7463379,2.3085938-3.5600586,3.996891     c-0.8137817,1.6882935-1.2206421,3.6040039-1.2206421,5.7470093v0.4268188c0,2.1300659,0.4068604,4.041748,1.2206421,5.7370605     c0.8137207,1.6953125,2.003418,3.0275879,3.5700684,3.9968872c1.5666504,0.9702759,3.4683228,1.4549561,5.7061157,1.4549561     s4.1365356-0.4846802,5.696106-1.4549561c1.5596924-0.9692993,2.7424316-2.3015747,3.5501709-3.9968872     c0.8067627-1.6953125,1.2095947-3.6069946,1.2095947-5.7370605v-0.4268188c0-2.1430054-0.402832-4.0587158-1.2095947-5.7470093     C157.6087189,63.7136497,156.4229279,62.3813133,154.8563995,61.405056z M153.4832306,71.5757751     c0,1.152832-0.1396484,2.204895-0.4168701,3.1532593c-0.2781982,0.9493408-0.7330322,1.7022705-1.3631592,2.258728     c-0.6303101,0.5554199-1.4749756,0.8336792-2.53302,0.8336792c-1.0710449,0-1.9226685-0.2782593-2.5529175-0.8336792     c-0.630249-0.5564575-1.0849609-1.3093872-1.3632202-2.258728c-0.2781982-0.9483643-0.4168091-2.0004272-0.4168091-3.1532593     v-0.4268188c0-1.1258545,0.1356201-2.1669922,0.4068604-3.1223145c0.2712402-0.9563599,0.7219849-1.7192383,1.3532104-2.2886353     c0.630249-0.569397,1.4749146-0.8546143,2.5319824-0.8546143c1.0849609,0,1.9436035,0.2852173,2.5739136,0.8546143     c0.630127,0.569397,1.0849609,1.3322754,1.3631592,2.2886353c0.2772217,0.9553223,0.4168701,1.99646,0.4168701,3.1223145     V71.5757751z"/>
			<path class="st0" d="M176.0634308,75.8107605c-0.2803955,0.5150757-0.661499,0.942749-1.1497803,1.2786865     c-0.6711426,0.4607544-1.5966797,0.6911011-2.7763672,0.6911011c-0.583252,0-1.1018066-0.1047363-1.5566406-0.3151245     c-0.4547119-0.2104492-0.8067627-0.5494995-1.0581055-1.0172119c-0.2512207-0.4676514-0.3759766-1.0750122-0.3759766-1.8209229     V60.3470116h-6.1437988v14.2393837c0,2.9169312,0.6750488,5.0081177,2.0244141,6.2765503     c1.3491211,1.2675171,3.1092529,1.9017334,5.2792969,1.9017334c1.84375,0,3.3725586-0.4477539,4.5871582-1.3422852     c0.5236816-0.3864136,0.979248-0.8461304,1.3891602-1.3547974l0.1665039,2.2902222h5.7570801v-22.010807h-6.1429443V75.8107605z"/>
			<path class="st0" d="M202.610672,61.3332787c-1.2755127-0.9284668-2.8411865-1.3931274-4.6989746-1.3931274     c-1.7900391,0-3.2648926,0.4846191-4.4248047,1.4549561c-0.3796387,0.3174438-0.7214355,0.6878662-1.0458984,1.0824585     l-0.2254639-2.1305542h-5.696167V90.820282h6.1439209V80.4844666c0.2581787,0.289917,0.5325928,0.5585327,0.8236084,0.8052979     c1.1599121,0.9832764,2.6407471,1.4749146,4.4447021,1.4749146c1.8577881,0,3.4205322-0.4916382,4.6889648-1.4749146     s2.230835-2.3225098,2.8890381-4.0178223c0.6571045-1.6952515,0.9862061-3.6069946,0.9862061-5.7360229v-0.4278564     c0-2.2377319-0.3291016-4.1932983-0.9862061-5.8686523C204.8513947,63.5650291,203.8850861,62.262661,202.610672,61.3332787z      M200.3528595,71.5359192c0,1.1387939-0.1296387,2.1868896-0.3869629,3.1422119     c-0.2572021,0.9563599-0.6779785,1.7192383-1.2614746,2.2886353c-0.583252,0.569458-1.3760986,0.8546753-2.3793945,0.8546753     c-1.0310059,0-1.8587646-0.227417-2.4820557-0.6811523c-0.5032959-0.3665771-0.8928223-0.8462524-1.1796875-1.4286499v-8.7782593     c0.1087646-0.2137451,0.2200928-0.4245605,0.3560791-0.6060181c0.3449707-0.4606934,0.7856445-0.8097534,1.3222656-1.0470581     c0.5354004-0.2373657,1.1826172-0.3560181,1.942627-0.3560181c0.9892578,0,1.782959,0.2682495,2.3793945,0.803772     c0.59729,0.5355225,1.0280762,1.2674561,1.2923584,2.1968994c0.2642822,0.9284058,0.3968506,1.9904175,0.3968506,3.1831055     V71.5359192z"/>
			<path class="st0" d="M227.9163361,76.9259338v-9.194458c0-1.7362061-0.3859863-3.1801758-1.1589355-4.3329506     c-0.7736816-1.152832-1.8308105-2.017395-3.1740723-2.593811c-1.3422852-0.576416-2.868042-0.864563-4.5772705-0.864563     c-1.9117432,0-3.5731201,0.3190918-4.9831543,0.9562988c-1.4110107,0.6372681-2.5030518,1.487854-3.276001,2.5529175     c-0.7727051,1.0650673-1.1586914,2.2477455-1.1586914,3.5501137h6.1429443c0-0.5424805,0.114624-1.0001831,0.3460693-1.3731689     c0.2302246-0.3729248,0.5693359-0.6611328,1.0170898-0.864563s0.9763184-0.3051758,1.5866699-0.3051758     c1.0710449,0,1.8508301,0.2911987,2.3394775,0.8745728s0.7319336,1.3701782,0.7319336,2.359436v1.2006836h-2.4810791     c-3.3776855,0-5.9205322,0.6342163-7.6287842,1.9016724c-1.7093506,1.2684937-2.5628662,3.0545044-2.5628662,5.3601074     c0,1.2884521,0.3320313,2.4312744,0.9962158,3.4284668c0.6641846,0.9962158,1.5666504,1.776062,2.7054443,2.338501     c1.1398926,0.5634155,2.4003906,0.8446655,3.7834473,0.8446655c1.0720215,0,2.0043945-0.1565552,2.7972412-0.4677124     c0.7938232-0.3121338,1.4678955-0.7189941,2.0244141-1.2205811c0.2376709-0.2142334,0.4481201-0.4396973,0.6497803-0.6688843     c0.1411133,0.7617798,0.3356934,1.4171753,0.5908203,1.9503174h6.1848145v-0.3460693     c-0.2852783-0.569397-0.5056152-1.2335205-0.6612549-1.9934082     C227.9939728,79.2594299,227.9163361,78.228302,227.9163361,76.9259338z M220.1358185,77.6080017     c-0.6171875,0.3320923-1.3531494,0.4985962-2.2077637,0.4985962c-0.8266602,0-1.4848633-0.2243652-1.9725342-0.6721191     c-0.4886475-0.4467163-0.7330322-1.0171509-0.7330322-1.708252c0-0.9084473,0.3321533-1.6853027,0.9973145-2.3295288     c0.6640625-0.644165,1.7421875-0.9663086,3.2340088-0.9663086h2.298584v3.6713867     c-0.0566406,0.1002808-0.1186523,0.2017212-0.1925049,0.305603     C221.2268829,76.8750305,220.7521515,77.2759094,220.1358185,77.6080017z"/>
			<path class="st0" d="M237.3869171,60.5095482c0.6033936-1.5726318,1.494873-2.7972412,2.6756592-3.671814     c1.1796875-0.8745728,2.6445313-1.3123169,4.3936768-1.3123169c2.2786865,0,3.9290771,0.6003418,4.9532471,1.8009644     c1.0241699,1.199646,1.6853027,2.8370972,1.9835205,4.9123535h3.9459229     c-0.2033691-1.9525757-0.7348633-3.6748047-1.5964355-5.166626c-0.8615723-1.4918823-2.0643311-2.6546021-3.611084-3.4893188     c-1.5456543-0.8336792-3.4373779-1.2504883-5.6751709-1.2504883c-2.4411621,0-4.557251,0.569397-6.34729,1.708252     c-1.7900391,1.1398315-3.170166,2.7363892-4.1395264,4.7906494c-0.9693604,2.0552979-1.4539795,4.4655762-1.4539795,7.2318764     v2.9907227c0,2.7533569,0.4807129,5.1606445,1.4440918,7.2219238c0.9621582,2.0612793,2.3115234,3.6578369,4.0476074,4.7906494     c1.7362061,1.131897,3.7636719,1.6983032,6.0831299,1.6983032c2.3863525,0,4.3739014-0.4268188,5.9604492-1.2814331     s2.8131104-2.024353,3.6817627-3.5092773c0.8675537-1.4848633,1.4030762-3.156189,1.6064453-5.0140381h-3.9459229     c-0.2174072,1.3831787-0.5794678,2.5698853-1.0880127,3.559082c-0.5085449,0.9902954-1.2545166,1.7501831-2.237793,2.2786865     c-0.9831543,0.529541-2.3095703,0.7938232-3.9769287,0.7938232c-1.7501221,0-3.1842041-0.4747314-4.3031006-1.4240723     s-1.9494629-2.2208252-2.4919434-3.8143921s-0.8137207-3.3596802-0.8137207-5.2992554v-3.0315552     C236.4815216,63.9210472,236.7835236,62.0831566,237.3869171,60.5095482z"/>
			<rect x="260.3839722" y="51.11166" class="st0" width="3.8044434" height="31.2461548"/>
			<path class="st0" d="M283.656311,76.3686829c-0.4128418,0.9529419-1.043335,1.7243652-1.9116211,2.2973633     c-0.9365234,0.6173096-2.2039795,0.9254761-3.8044434,0.9254761c-0.6782227,0-1.3254395-0.1396484-1.942627-0.4168701     c-0.6173096-0.2781982-1.1188965-0.7798462-1.5058594-1.5057983c-0.3859863-0.7249756-0.5793457-1.7531128-0.5793457-3.0824585     V60.3470116h-3.8044434v14.1995277c0,2.928833,0.6640625,5.0310059,1.9934082,6.305481     c1.3293457,1.2754517,3.0725098,1.9126587,5.2285156,1.9126587c2.1160889,0,3.8044434-0.4407959,5.0649414-1.3223267     c0.5203857-0.3637085,0.9658203-0.7966309,1.3660889-1.2710571l0.0788574,2.1865234h3.6209717v-22.010807h-3.8044434V76.3686829z     "/>
			<path class="st0" d="M310.8137817,65.280304c-0.6640625-1.6883583-1.6334229-3.0006752-2.9089355-3.9361     c-1.2744141-0.9364014-2.8341064-1.4040527-4.6779785-1.4040527c-1.8588867,0-3.4074707,0.4237671-4.6490479,1.2714233     c-0.6048584,0.413269-1.1419678,0.9143677-1.6165771,1.4968872V51.11166h-3.8044434v31.2461586h3.4783936l0.1937256-2.5380859     c0.5087891,0.656311,1.0910645,1.2194214,1.7597656,1.6734619c1.2475586,0.8476563,2.807373,1.2714844,4.6781006,1.2714844     c1.8179932,0,3.3636475-0.4846802,4.6380615-1.4549561c1.2755127-0.9692993,2.244873-2.2946167,2.9089355-3.9769287     c0.6651611-1.6813354,0.9973145-3.5930176,0.9973145-5.736084v-0.4277954     C311.8110962,68.9311218,311.4789429,66.9685974,310.8137817,65.280304z M308.0066528,71.5967102     c0,1.4649658-0.1925049,2.8002319-0.5794678,4.006897c-0.3868408,1.2076416-0.9971924,2.1739502-1.8309326,2.8989258     c-0.8336182,0.7259521-1.9295654,1.0889893-3.2849121,1.0889893c-1.2344971,0-2.2685547-0.2782593-3.1022949-0.8347168     c-0.8347168-0.5554199-1.4958496-1.2714233-1.9833984-2.1459961c-0.1022949-0.1831055-0.1739502-0.3746338-0.2644043-0.5609741     V66.552948c0.2900391-0.6091919,0.6417236-1.1688843,1.078125-1.6596069     c0.4875488-0.5494385,1.0809326-0.9862709,1.7800293-1.3123207c0.697998-0.3251343,1.5147705-0.4876709,2.4511719-0.4876709     c1.4240723,0,2.5528564,0.3659668,3.3864746,1.0979652c0.8347168,0.7329712,1.434082,1.7122192,1.8010254,2.9398193     c0.3659668,1.2276001,0.548584,2.5738525,0.548584,4.0377808V71.5967102z"/>
		</g>
		<g>
			<path class="st1" d="M74.5648117,48.7132263c-0.00811,0.1053467-0.0162201,0.2025795-0.0243301,0.2998123     c-0.1701355,2.3255844-1.1668015,4.5944443-3.006218,6.3609161L46.1958466,79.7237625     c-2.0257759,1.9528809-4.6998367,2.9252625-7.3739014,2.9252625c-2.6739655,0-5.339817-0.9723816-7.365593-2.9252625     c-4.0515518-3.8975906-4.0515518-10.2666168,0-14.1642075l18.0940933-17.3811607l7.2442245-6.968647     c4.0515518-3.8894806,10.6880417-3.8894806,14.7395935,0C73.6733932,43.2679176,74.6781693,46.0067711,74.5648117,48.7132263z"/>
			<path class="st1" d="M43.0599518,93.5921402c0,2.0582199-0.8346443,3.9219208-2.1878967,5.2751236     c-1.353157,1.3532028-3.2169075,2.187851-5.2751274,2.187851c-4.1244526,0-7.4710369-3.3465881-7.4710369-7.4629745     c0-4.1244583,3.3465843-7.4710388,7.4710369-7.4710388C39.7133675,86.1211014,43.0599518,89.4676819,43.0599518,93.5921402z"/>
			<path class="st2" d="M96.4658279,76.5635834L78.3715439,93.9528122l-7.2441254,6.9605865     c-4.0515518,3.8975906-10.6880455,3.8975906-14.7395973,0c-2.0257759-1.9447632-3.038662-4.5134354-3.038662-7.0821075     c-0.0080109-0.1053391,0-0.2025757,0.00811-0.2916946c0.0728989-2.471489,1.0857887-4.9185944,3.0305519-6.7904053     l25.3384132-24.3498116c2.0338898-1.944767,4.6997452-2.9171486,7.3738098-2.9171486     c2.665947,0,5.3400116,0.9723816,7.3657837,2.9171486C100.5173798,66.2969666,100.5173798,72.6659927,96.4658279,76.5635834z"/>
			<path class="st3" d="M74.5648117,48.7132263c-0.00811,0.1053467-0.0162201,0.2025795-0.0243301,0.2998123     c-0.2187958,2.2364655-1.2235794,4.4161987-3.006218,6.1259422c-2.0338898,1.9528275-4.6998367,2.925209-7.3657913,2.925209     c-2.6739655,0-5.3399162-0.9723816-7.3738022-2.925209l-7.2442245-6.9605865l-18.0940933-17.389225     c-4.0677738-3.9138107-4.0677738-10.2504425,0-14.1642551c4.0676727-3.913763,10.6636124-3.913763,14.7394943,0     l25.3384171,24.3498592C73.7463913,43.0977821,74.7511673,45.9419327,74.5648117,48.7132263z"/>
			<path class="st4" d="M96.4658279,125.49823c-4.0677719,3.9137573-10.6637039,3.9137573-14.7395935,0l-25.3384132-24.3498611     c-2.0986748-2.017662-3.1115608-4.6754532-3.038662-7.3170776c-0.0080109-0.1053391,0-0.2025757,0.00811-0.2916946     c0.1296768-2.3904266,1.1425667-4.7322388,3.0305519-6.5473251c2.033886-1.9609375,4.6998405-2.9333191,7.3738022-2.9333191     c2.6659508,0,5.3319054,0.9723816,7.3657951,2.9333191l7.2441254,6.9605408l18.0942841,17.3893204     C100.5336075,115.2477875,100.5336075,121.5924759,96.4658279,125.49823z"/>
		</g>
	</g>
</g>
<g id="SAFE_GRID" class="st5">
	<g class="st6">
		
			<rect x="311.8110352" transform="matrix(-1.836970e-16 1 -1 -1.836970e-16 340.1574707 -311.8110352)" class="st7" width="28.3464565" height="28.3464565"/>
		
			<rect x="283.4645691" transform="matrix(-1.836970e-16 1 -1 -1.836970e-16 311.8110352 -283.4645691)" class="st7" width="28.3464565" height="28.3464565"/>
		
			<rect x="255.118103" y="0" transform="matrix(-1.836970e-16 1 -1 -1.836970e-16 283.4645691 -255.118103)" class="st7" width="28.3464565" height="28.3464565"/>
		
			<rect x="226.7716522" y="0" transform="matrix(-1.836970e-16 1 -1 -1.836970e-16 255.118103 -226.7716522)" class="st7" width="28.3464565" height="28.3464565"/>
		
			<rect x="198.4252014" y="0" transform="matrix(-1.836970e-16 1 -1 -1.836970e-16 226.7716522 -198.4252014)" class="st7" width="28.3464565" height="28.3464565"/>
		
			<rect x="170.0787354" transform="matrix(-1.836970e-16 1 -1 -1.836970e-16 198.4252014 -170.0787354)" class="st7" width="28.3464565" height="28.3464565"/>
		
			<rect x="141.7322845" y="0" transform="matrix(-1.836970e-16 1 -1 -1.836970e-16 170.0787354 -141.7322845)" class="st7" width="28.3464565" height="28.3464565"/>
		
			<rect x="113.3858261" y="0" transform="matrix(-1.836970e-16 1 -1 -1.836970e-16 141.7322845 -113.3858261)" class="st7" width="28.3464565" height="28.3464565"/>
		
			<rect x="85.0393677" transform="matrix(-1.836970e-16 1 -1 -1.836970e-16 113.3858261 -85.0393677)" class="st7" width="28.3464565" height="28.3464565"/>
		
			<rect x="56.6929131" transform="matrix(-1.836970e-16 1 -1 -1.836970e-16 85.0393677 -56.6929131)" class="st7" width="28.3464565" height="28.3464565"/>
		
			<rect x="28.3464565" y="0" transform="matrix(-1.836970e-16 1 -1 -1.836970e-16 56.6929131 -28.3464565)" class="st7" width="28.3464565" height="28.3464565"/>
		
			<rect x="0" y="0" transform="matrix(-1.836970e-16 1 -1 -1.836970e-16 28.3464565 -4.545697e-12)" class="st7" width="28.3464565" height="28.3464565"/>
		
			<rect x="311.8110352" y="28.333334" transform="matrix(-1.836970e-16 1 -1 -1.836970e-16 368.4908142 -283.4776917)" class="st7" width="28.3464565" height="28.3464565"/>
		
			<rect x="311.8110352" y="56.6666679" transform="matrix(-1.836970e-16 1 -1 -1.836970e-16 396.8241577 -255.1443634)" class="st7" width="28.3464565" height="28.3464565"/>
		
			<rect x="311.8110352" y="85" transform="matrix(-1.836970e-16 1 -1 -1.836970e-16 425.1574707 -226.8110199)" class="st7" width="28.3464565" height="28.3464565"/>
		
			<rect x="311.8110352" y="113.3333359" transform="matrix(-1.836970e-16 1 -1 -1.836970e-16 453.4908142 -198.4776917)" class="st7" width="28.3464565" height="28.3464565"/>
		
			<rect x="0" y="28.333334" transform="matrix(-1.836970e-16 1 -1 -1.836970e-16 56.6797905 28.333334)" class="st7" width="28.3464565" height="28.3464565"/>
		
			<rect x="0" y="56.6666679" transform="matrix(-1.836970e-16 1 -1 -1.836970e-16 85.0131226 56.6666679)" class="st7" width="28.3464565" height="28.3464565"/>
		
			<rect x="0" y="85" transform="matrix(-1.836970e-16 1 -1 -1.836970e-16 113.3464584 85)" class="st7" width="28.3464565" height="28.3464565"/>
		
			<rect x="0" y="113.3333359" transform="matrix(-1.836970e-16 1 -1 -1.836970e-16 141.6797943 113.3333359)" class="st7" width="28.3464565" height="28.3464565"/>
		
			<rect x="283.4645691" y="113.3333359" transform="matrix(-1.836970e-16 1 -1 -1.836970e-16 425.1443481 -170.1312408)" class="st7" width="28.3464565" height="28.3464565"/>
		
			<rect x="255.118103" y="113.3333359" transform="matrix(-1.836970e-16 1 -1 -1.836970e-16 396.7979126 -141.7847748)" class="st7" width="28.3464565" height="28.3464565"/>
		
			<rect x="226.7716522" y="113.3333359" transform="matrix(-1.836970e-16 1 -1 -1.836970e-16 368.4514465 -113.438324)" class="st7" width="28.3464565" height="28.3464565"/>
		
			<rect x="198.4252014" y="113.3333359" transform="matrix(-1.836970e-16 1 -1 -1.836970e-16 340.1049805 -85.0918655)" class="st7" width="28.3464565" height="28.3464565"/>
		
			<rect x="170.0787354" y="113.3333359" transform="matrix(-1.836970e-16 1 -1 -1.836970e-16 311.7585449 -56.7454071)" class="st7" width="28.3464565" height="28.3464565"/>
		
			<rect x="141.7322845" y="113.3333359" transform="matrix(-1.836970e-16 1 -1 -1.836970e-16 283.4120789 -28.3989506)" class="st7" width="28.3464565" height="28.3464565"/>
		
			<rect x="113.3858261" y="113.3333359" transform="matrix(-1.836970e-16 1 -1 -1.836970e-16 255.0656128 -0.0524934)" class="st7" width="28.3464565" height="28.3464565"/>
		
			<rect x="85.0393677" y="113.3333359" transform="matrix(-1.836970e-16 1 -1 -1.836970e-16 226.719162 28.2939625)" class="st7" width="28.3464565" height="28.3464565"/>
		
			<rect x="56.6929131" y="113.3333359" transform="matrix(-1.836970e-16 1 -1 -1.836970e-16 198.3726959 56.640419)" class="st7" width="28.3464565" height="28.3464565"/>
		
			<rect x="28.3464565" y="113.3333359" transform="matrix(-1.836970e-16 1 -1 -1.836970e-16 170.0262451 84.9868774)" class="st7" width="28.3464565" height="28.3464565"/>
	</g>
</g>
</svg>